<?xml version="1.0" standalone="no"?>
<!DOCTYPE svg PUBLIC "-//W3C//DTD SVG 20010904//EN"
 "http://www.w3.org/TR/2001/REC-SVG-20010904/DTD/svg10.dtd">
<svg version="1.0" xmlns="http://www.w3.org/2000/svg"
 width="332.000000pt" height="332.000000pt" viewBox="0 0 332.000000 332.000000"
 preserveAspectRatio="xMidYMid meet">
<metadata>
Created by potrace 1.11, written by Peter Selinger 2001-2013
</metadata>
<g transform="translate(0.000000,332.000000) scale(0.100000,-0.100000)"
fill="#000000" stroke="none">
<path d="M1529 3286 c-2 -2 -33 -7 -69 -10 -36 -3 -72 -8 -80 -9 -8 -2 -33 -7
-55 -11 -240 -46 -492 -165 -705 -335 -54 -43 -250 -240 -250 -251 0 -5 -7
-16 -16 -24 -32 -33 -124 -181 -173 -280 -59 -120 -114 -280 -135 -398 -9 -45
-18 -96 -21 -113 -11 -52 -13 -327 -4 -395 18 -129 21 -145 45 -238 92 -354
304 -675 590 -893 49 -38 94 -69 98 -69 4 0 16 -9 28 -19 34 -32 237 -128 352
-166 186 -63 280 -76 526 -75 186 1 232 5 326 25 329 70 608 226 851 476 34
35 62 66 61 69 -1 3 11 19 27 37 46 48 75 87 75 99 0 7 7 14 15 18 8 3 15 10
15 17 0 6 9 24 20 40 54 74 166 336 185 428 2 9 8 36 14 61 29 116 40 239 36
400 -2 91 -6 181 -10 200 -48 275 -120 466 -252 670 -74 113 -119 168 -227
275 -88 87 -234 205 -254 205 -6 0 -12 4 -14 8 -6 16 -169 101 -267 141 -127
51 -233 79 -391 106 -40 7 -336 16 -341 11z"/>
</g>
</svg>
